<?xml version="1.0" encoding="UTF-8"?>
<svg id="Layer_1" data-name="Layer 1" xmlns="http://www.w3.org/2000/svg" viewBox="0 0 1400 1400">
  <defs>
    <style>
      .cls-1 {
        fill: #231f20;
      }
    </style>
  </defs>
  <path class="cls-1" d="M244.56,623.41c-16.5-6.98-36.25-10.44-59.38-10.44-16.64,0-32.02,1.83-46.19,5.57-14.11,3.74-26.38,9.17-36.81,16.36-10.44,7.19-18.55,16.08-24.26,26.66-5.71,10.58-8.53,22.5-8.53,35.9,0,11.92,2.47,22.29,7.48,31.1,4.94,8.82,12.13,16.36,21.58,22.57,9.45,6.21,20.95,11.43,34.63,15.66l43.94,14.11c7.19,2.47,13.05,5.15,17.49,8.04,4.51,2.82,7.83,6.21,10.09,10.01,2.19,3.88,3.31,8.39,3.31,13.61,0,6.21-1.2,11.43-3.67,15.66-2.54,4.23-5.85,7.69-10.09,10.44-4.23,2.68-9.17,4.73-14.88,5.92-5.71,1.27-11.92,1.9-18.62,1.9-11.43,0-21.37-1.69-29.83-5.08-8.39-3.31-14.88-8.25-19.32-14.67-2.53-3.64-4.33-7.62-5.43-11.94-1.59-6.28-7.09-10.77-13.57-10.77h-36.69c-8.74,0-15.46,7.96-13.82,16.55,2.09,10.88,6.14,20.74,12.17,29.57,8.89,13.19,22.07,23.41,39.42,30.75,17.42,7.33,38.51,11,63.33,11,17.14,0,33.08-1.9,47.82-5.57,7.34-1.87,14.17-4.14,20.49-6.87,4.41-1.9,7.65-5.78,8.51-10.51l18.96-104.99.42-2.34c.94-5.31-1.2-10.75-5.63-13.83-.03-.02-.05-.04-.08-.05-9.94-6.7-22.22-12.27-36.88-16.71l-38.18-11.65c-.6-.18-1.2-.41-1.77-.67-6.33-2.88-11.82-5.5-16.47-8-4.8-2.61-8.53-5.78-11.14-9.52-2.61-3.74-3.95-8.18-3.95-13.4,0-6.7,1.83-12.34,5.43-16.93,3.6-4.58,8.6-8.04,15.09-10.23,6.42-2.26,14.25-3.39,23.48-3.39,10.65,0,19.75,1.69,27.36,5.01,7.55,3.39,13.4,7.97,17.49,13.82,2.22,3.18,3.84,6.62,4.85,10.34,1.63,5.95,7.18,9.97,13.35,9.97h18.82l.42-2.47,7.88-43.36c.93-5.09-.99-10.31-5.05-13.52-6.79-5.36-14.64-9.9-23.57-13.65Z"/>
  <polygon class="cls-1" points="610.1 787.1 608.9 789.22 609.32 786.89 610.1 787.1"/>
  <path class="cls-1" d="M787.73,618.55h-77.74c-2.54,0-4.89,1.37-6.15,3.58l-73.33,129.02c-.4.7-.67,1.45-.81,2.24l-6.91,38.37-16.27,89.91c-.79,4.34,2.55,8.33,6.96,8.33h0c2.57,0,4.93-1.39,6.18-3.63l26.42-47.46c1.25-2.24,3.61-3.63,6.18-3.63h104.35c3.53,0,6.52,2.61,7.01,6.11l5.86,42.52c.48,3.5,3.47,6.11,7.01,6.11h50.01c4.33,0,7.64-3.85,6.99-8.13l-38.77-257.31c-.52-3.46-3.49-6.02-6.99-6.02ZM755.54,782.52c.4,2.91-1.86,5.5-4.8,5.5h-68.1c-3.69,0-6.03-3.97-4.23-7.2,20.2-38.32,40.4-76.64,60.6-114.95h3.39c4.38,38.88,8.76,77.77,13.14,116.65Z"/>
  <path class="cls-1" d="M964.78,893.75c-21.36,0-40.41-3.17-57.16-9.5-16.76-6.33-30.54-15.51-41.34-27.56-10.8-12.04-18.24-26.44-22.34-43.2s-4.16-35.57-.19-56.42l7.82-37.61c4.46-22.09,13.28-40.97,26.44-56.61,13.15-15.63,29.85-27.56,50.08-35.74,20.23-8.2,42.88-12.29,67.96-12.29,23.58,0,44.25,4.1,62,12.29,17.75,8.19,31.65,19.73,41.71,34.63,2.05,3.04,3.91,6.2,5.58,9.47,10.11,19.85-4.07,43.41-26.34,43.41h-5.19c-12.34,0-22.76-8.05-27.28-19.53-1.13-2.87-2.5-5.54-4.11-8.03-4.84-7.45-11.49-13.09-19.92-16.94-8.44-3.85-18.25-5.77-29.42-5.77-13.91,0-26.01,2.29-36.31,6.89-10.3,4.59-18.62,11.17-24.95,19.74-6.34,8.56-10.74,18.69-13.22,30.35l-11.17,52.14c-2.73,14.15-2.05,26.57,2.05,37.24,4.1,10.68,11.18,18.87,21.23,24.58,10.06,5.72,22.78,8.57,38.18,8.57,10.92,0,20.72-1.74,29.42-5.21,8.69-3.48,16.2-8.51,22.53-15.08,2.81-2.91,5.33-6.06,7.57-9.44,5.63-8.48,14.87-13.84,25.05-13.84h0c25.53,0,39.49,30.42,22.29,49.28-.36.4-.72.79-1.09,1.18-13.16,14.03-29.17,24.7-48.04,32.03-18.87,7.32-39.48,10.99-61.82,10.99Z"/>
  <path class="cls-1" d="M1201.25,687.8l-2.6,12.34c-3.07,14.58,8.05,28.28,22.95,28.28h48.77c14.94,0,26.07,13.78,22.93,28.38h0c-2.32,10.8-11.87,18.52-22.93,18.52h-68.52c-11.09,0-20.66,7.77-22.95,18.62l-3.53,16.78c-3.07,14.57,8.05,28.28,22.95,28.28h90.96c14.84,0,25.95,13.61,22.97,28.15l-.84,4.09c-2.23,10.91-11.84,18.75-22.97,18.75h-165.74c-14.89,0-26.01-13.7-22.95-28.27l47.14-224.55c2.28-10.86,11.86-18.63,22.95-18.63h164.98c14.92,0,26.04,13.75,22.93,28.34l-.8,3.74c-2.31,10.82-11.87,18.56-22.93,18.56h-109.82c-11.09,0-20.66,7.77-22.95,18.61Z"/>
  <polygon class="cls-1" points="610.1 787.1 608.9 789.22 609.32 786.89 610.1 787.1"/>
  <g>
    <path class="cls-1" d="M293.3,618.55l-3.53,19.68-3.46,18.9-7.12,39.28-2.54,14.11-6.84,37.8-3.24,18.2v.07l-17.91,99.02v.07l-3.53,19.47-17.42,96.27,105.22-90.55h257.63l.14-.85,18.2-100.78.42-2.33,30.47-168.35h-346.49ZM528.61,760.8l-.21,1.18-9.2,50.97-.07.43h-130.3l-53.22,45.8,8.81-48.69,1.78-9.84v-.04l9.06-50.08v-.04l1.64-9.2,3.46-19.12,1.28-7.13,3.6-19.87,1.75-9.56,1.78-9.95h175.25l-15.41,85.15Z"/>
    <polygon class="cls-1" points="484.67 777.25 484.7 777.04 489.3 751.55 489.41 750.97 497.12 708.39 409.49 708.39 408.6 713.37 407.73 718.15 405.92 728.08 405.28 731.65 403.55 741.21 402.73 745.81 402.73 745.83 398.2 770.87 398.2 770.89 397.31 775.81 392.9 800.15 419.51 777.25 484.67 777.25"/>
  </g>
  <path class="cls-1" d="M235.95,578.01c-12.21,0-23.09-1.8-32.67-5.43-9.58-3.62-17.45-8.86-23.62-15.74-6.18-6.88-10.43-15.12-12.78-24.69-2.34-9.58-2.37-20.33-.1-32.25l4.47-21.5c2.56-12.63,7.6-23.41,15.12-32.35,7.52-8.94,17.06-15.75,28.62-20.43,11.57-4.69,24.51-7.03,38.85-7.03,13.48,0,25.29,2.34,35.44,7.03,10.15,4.68,18.09,11.28,23.84,19.79,1.29,1.92,2.45,3.91,3.48,5.99,5.51,11.16-2.91,24.24-15.35,24.24h-2.7c-7.11,0-13.25-4.54-15.85-11.15-.65-1.65-1.43-3.18-2.36-4.6-2.76-4.25-6.57-7.49-11.39-9.68-4.82-2.2-10.43-3.3-16.81-3.3-7.95,0-14.87,1.31-20.76,3.94-5.89,2.62-10.64,6.38-14.26,11.28-3.62,4.89-6.14,10.68-7.56,17.34l-6.38,29.8c-1.57,8.09-1.17,15.18,1.17,21.28,2.35,6.11,6.39,10.79,12.14,14.05,5.74,3.27,13.01,4.89,21.81,4.89,6.24,0,11.85-.99,16.82-2.98,4.97-1.98,9.26-4.86,12.88-8.62,1.8-1.87,3.39-3.91,4.79-6.11,2.95-4.66,8.34-7.19,13.85-7.19h0c14.43,0,22.63,17.22,12.96,27.92-.28.31-.56.61-.84.91-7.53,8.02-16.68,14.12-27.46,18.31-10.79,4.19-22.57,6.28-35.33,6.28Z"/>
  <path class="cls-1" d="M335,555.29l22.97-120.46c1.56-8.18,8.71-14.1,17.04-14.1h0c10.89,0,19.08,9.91,17.04,20.6l-22.97,120.46c-1.56,8.18-8.71,14.1-17.04,14.1h0c-10.89,0-19.08-9.91-17.04-20.6Z"/>
  <path class="cls-1" d="M443.07,560.26l-19.17-118.24c-1.81-11.16,6.81-21.29,18.12-21.29h.52c9.17,0,16.93,6.77,18.18,15.85,4.24,35.65,8.48,71.31,12.72,106.96h2.34c19.28-37.68,38.56-75.36,57.84-113.03,3.18-6.02,9.42-9.78,16.23-9.78,14.02,0,22.86,15.08,16.02,27.31l-66.1,118.24c-3.24,5.8-9.37,9.4-16.02,9.4h-22.57c-9,0-16.68-6.53-18.12-15.42Z"/>
  <path class="cls-1" d="M720.33,578.01c-12.21,0-23.09-1.8-32.67-5.43-9.58-3.62-17.45-8.86-23.63-15.74-6.17-6.88-10.43-15.12-12.77-24.69-2.34-9.58-2.38-20.33-.11-32.25l4.47-21.5c2.55-12.63,7.59-23.41,15.11-32.35,7.52-8.94,17.06-15.75,28.63-20.43,11.56-4.69,24.51-7.03,38.84-7.03,13.48,0,25.3,2.34,35.45,7.03,10.14,4.68,18.08,11.28,23.83,19.79,1.3,1.92,2.46,3.91,3.48,5.99,5.51,11.16-2.9,24.23-15.35,24.23h-2.7c-7.11,0-13.25-4.53-15.85-11.15-.65-1.65-1.43-3.18-2.36-4.61-2.77-4.25-6.57-7.49-11.39-9.68-4.82-2.2-10.43-3.3-16.82-3.3-7.94,0-14.86,1.31-20.75,3.94-5.89,2.62-10.64,6.38-14.26,11.28-3.62,4.89-6.14,10.68-7.55,17.34l-6.39,29.8c-1.57,8.09-1.17,15.18,1.17,21.28,2.34,6.11,6.38,10.79,12.13,14.05,5.75,3.27,13.01,4.89,21.82,4.89,6.24,0,11.84-.99,16.82-2.98,4.96-1.98,9.25-4.86,12.87-8.62,1.8-1.87,3.41-3.91,4.8-6.12,2.95-4.65,8.33-7.18,13.84-7.18h0c14.43,0,22.63,17.21,12.96,27.92-.28.31-.56.61-.85.92-7.52,8.02-16.67,14.12-27.46,18.31-10.79,4.19-22.56,6.28-35.33,6.28Z"/>
  <path class="cls-1" d="M579.77,555.29l22.97-120.46c1.56-8.18,8.71-14.1,17.04-14.1h0c10.89,0,19.08,9.91,17.04,20.6l-22.97,120.46c-1.56,8.18-8.71,14.1-17.04,14.1h0c-10.89,0-19.08-9.91-17.04-20.6Z"/>
</svg>